<?xml version="1.0" encoding="UTF-8"?>
<svg width="220px" height="182px" viewBox="0 0 220 182" version="1.1" xmlns="http://www.w3.org/2000/svg" xmlns:xlink="http://www.w3.org/1999/xlink">
    <!-- Generator: Sketch 42 (36781) - http://www.bohemiancoding.com/sketch -->
    <title>g28950</title>
    <desc>Created with Sketch.</desc>
    <defs></defs>
    <g id="Page-1" stroke="none" stroke-width="1" fill="none" fill-rule="evenodd">
        <g id="A4-Copy" transform="translate(-31.000000, -246.000000)" fill-rule="nonzero">
            <g id="svg2" transform="translate(18.000000, 62.000000)">
                <g id="g28950" transform="translate(12.428000, 184.000000)">
                    <path d="M35.41957,22.639 C33.72698,20.43834 32.96446,21.96026 33.19693,20.92049 C33.50011,19.56509 32.55407,20.65152 32.1781,20.59533 C30.8424,20.39583 30.83846,19.69947 30.67318,19.71295 C29.87852,19.77765 30.09046,20.06154 29.91813,20.08332 C29.80386,20.09783 29.72133,19.89087 29.09879,19.31811 C28.4831,18.75156 23.672,18.64497 19.96062,20.61939 C20.00769,21.46485 17.16687,22.68318 18.14319,23.91623 C21.16464,27.73234 15.62462,31.3081 20.19433,33.23109 C21.38611,33.73252 24.2089,36.67434 23.65852,38.86878 C41.69162,39.57053 32.39563,40.12257 38.07562,34.09356 C39.49759,32.58429 41.34053,32.3203 42.76706,30.75483 C41.98961,30.04623 41.10288,29.51058 40.51331,29.97738 C38.87152,31.27741 39.43123,28.03386 38.1285,27.8408 C35.7551,27.48909 36.78554,24.41497 35.41956,22.63901 L35.41957,22.639 Z" id="_40416824" fill="#DCDCF3"></path>
                    <path d="M21.68988,44.72346 C21.68988,40.70952 27.63511,48.79464 29.09876,43.49269 C30.76916,37.44191 31.71023,42.83925 33.10669,39.27718 C31.38797,39.2355 28.51376,39.05736 23.65849,38.86844 C23.53717,39.35121 23.25286,39.7979 22.75185,40.17428 C19.71588,42.45561 20.19907,39.31057 19.84155,44.41986 C20.05846,44.89786 20.113,44.95427 20.12337,44.958 C20.11798,44.96692 20.10844,45.03494 20.18496,45.44326 C20.87697,49.13474 21.68988,46.7661 21.68988,44.72346 L21.68988,44.72346 Z" id="_40415816" fill="#DCDCF3"></path>
                    <path d="M156.95829,165.622 C154.23712,164.32674 153.24649,168.28905 148.10754,164.55568 C149.18174,166.92224 145.5701,169.98827 150.74535,170.44678 C155.40299,170.85925 150.54689,174.94971 151.58066,176.95337 C153.87547,181.40135 149.785,178.13167 164.28606,181.17386 C176.73666,183.78595 172.29819,176.01376 183.58596,174.40349 C199.42666,172.14352 193.34958,165.23628 203.01776,168.64428 C205.39593,169.48249 206.81292,168.20382 211.67856,173.83197 C212.64492,174.94993 214.45634,175.07684 215.28356,176.33789 C216.207,177.74534 216.76691,176.4901 218.44892,175.85429 C222.38843,174.36492 218.39501,174.28923 219.51484,172.04129 C218.72266,170.29043 218.26914,168.48813 216.02141,168.52484 C211.60972,168.59701 211.93468,165.7906 210.44158,166.41148 C205.10811,168.62915 208.4879,163.91801 210.78893,162.76542 C213.0854,161.61511 211.16448,161.43428 211.08983,159.70001 C210.84139,153.92442 206.95353,161.63834 206.64455,159.3286 C206.03964,154.80804 213.36971,155.64003 209.28381,154.80016 C207.60739,154.45551 208.4485,151.44836 206.11201,151.75797 C197.9008,152.84586 200.31464,157.36144 195.66991,155.12532 C191.29534,153.01943 191.34615,154.28338 190.57637,151.64184 C190.05171,149.84141 188.62083,151.20325 185.94569,151.8741 C183.44102,152.50224 182.20818,154.28462 180.34263,155.63608 C175.50914,159.1376 173.85408,156.14892 170.43323,157.16879 C169.55521,157.4305 167.64425,162.38095 163.85779,162.60304 C160.58687,162.79487 162.08183,162.85106 162.1907,164.60006 C162.31056,166.52595 157.90219,166.07138 156.95822,165.622 L156.95829,165.622 Z" id="_40041992" fill="#B3B4C1"></path>
                    <path d="M11.75727,79.303 C10.69862,79.33846 11.3477,79.50146 10.00993,79.8822 C10.69924,81.01903 10.82263,87.19942 13.48304,84.05873 C13.7968,83.68836 14.22337,83.84658 14.68934,84.20161 L15.068,82.87939 C14.81708,81.71083 14.60722,83.36651 14.30404,80.62668 C14.19579,79.6487 13.68295,78.52038 13.19272,78.62945 C12.24647,78.83973 13.45982,79.24597 11.75727,79.303 L11.75727,79.303 Z" id="_40041272" fill="#B3B4C1"></path>
                    <path d="M10.19907,65.473 C11.71415,64.65823 9.85545,65.23722 9.66902,63.81732 C9.03238,64.39444 8.01728,63.90193 9.45667,67.09861 C10.3913,66.67619 9.66404,65.76063 10.19907,65.473 L10.19907,65.473 Z" id="_40009704" fill="#B3B4C1"></path>
                    <path d="M23.12997,55.964 C20.59398,55.90759 24.66371,55.86322 20.76735,55.15918 C21.09127,56.62055 21.12403,58.55577 20.50315,61.31489 C20.33891,62.04505 19.96626,62.71156 19.47789,63.26131 C19.47872,63.26463 18.74648,66.35762 22.75939,63.90624 C23.55592,63.41974 23.57666,60.05218 22.82886,59.58683 C21.69805,58.88321 23.02338,59.55988 23.10675,58.01928 C23.12417,57.69744 25.02517,56.00609 23.12997,55.96399 L23.12997,55.964 Z" id="_40009104" fill="#B3B4C1"></path>
                    <path d="M9.60417,7.544 C9.62366,7.49879 5.23416,1.25267 2.78797,0.0698 C2.22681,2.35403 -0.41472,3.88093 1.3492,6.33065 C3.58988,9.44251 -1.64363,8.54417 5.74554,9.40809 C8.11728,9.68535 2.98932,10.06547 8.03164,13.89236 C9.72237,15.17559 11.2391,16.48226 12.89707,17.56476 C13.0499,17.35697 13.10631,17.19833 13.56316,17.06519 C16.64786,16.1654 11.56096,13.33576 11.43321,13.16385 C7.83754,8.3202 8.25146,10.68738 9.60417,7.544 L9.60417,7.544 Z" id="_39996200" fill="#DCDCF3"></path>
                </g>
            </g>
        </g>
    </g>
</svg>