<?xml version="1.0" encoding="UTF-8"?>
<svg width="237px" height="154px" viewBox="0 0 237 154" version="1.1" xmlns="http://www.w3.org/2000/svg" xmlns:xlink="http://www.w3.org/1999/xlink">
    <!-- Generator: Sketch 42 (36781) - http://www.bohemiancoding.com/sketch -->
    <title>_40437568</title>
    <desc>Created with Sketch.</desc>
    <defs></defs>
    <g id="Page-1" stroke="none" stroke-width="1" fill="none" fill-rule="evenodd">
        <g id="A4-Copy" transform="translate(-39.000000, -275.000000)" stroke="#FFFFFF" stroke-width="0.731572" fill="#9012FE" fill-rule="nonzero">
            <g id="svg2" transform="translate(18.000000, 62.000000)">
                <path d="M159.188,247.548 C156.494,247.14466 158.66376,246.17788 157.95329,244.54065 C155.85175,239.69783 161.05105,241.5418 161.2605,238.74722 C161.36294,237.38104 162.18643,236.62536 162.18643,235.67351 C162.18643,235.28966 162.62876,235.02982 162.62751,235.01012 C162.58417,234.33615 154.9084,231.30143 161.90668,231.48143 C159.50756,229.21047 157.10907,226.6834 153.83296,225.89745 C149.63196,224.88961 153.86282,222.35217 140.07236,222.11659 C132.76613,221.99175 124.77416,220.20501 123.30796,223.1545 C121.75203,226.28461 118.07133,226.23941 113.96573,224.78758 C111.08799,223.7702 106.20017,223.86538 101.34053,225.76556 C98.8257,226.74872 87.13163,224.68369 86.61273,220.35806 C86.197151,216.89241 81.47191,216.55999 78.91913,217.76422 C68.9442,222.46934 72.43473,218.06346 64.63103,216.66513 C61.39578,216.08531 58.427,211.82335 56.54176,214.33507 C55.0779,216.28522 53.04335,216.45879 51.50297,218.09374 C45.82298,224.12274 55.11896,223.57071 37.08587,222.86896 C36.964556,223.35173 36.680245,223.79841 36.179228,224.1748 C33.143258,226.45613 33.626448,223.31108 33.268928,228.42038 C33.194273,229.48794 30.651648,230.34337 31.790348,234.07466 C32.504961,236.41613 35.610608,237.84805 33.930458,245.31456 C33.109669,248.96249 27.087088,251.02193 27.426148,244.87243 C27.558038,242.48119 23.251898,243.66655 23.479388,246.06649 C23.840842,249.87949 20.162638,245.81785 23.699827,252.78875 C24.528496,254.42183 21.170477,254.30839 23.28093,256.52585 C25.04092,258.37501 21.59477,258.43702 22.382168,260.01306 C23.509668,262.27013 20.910218,259.71362 23.437288,263.88184 C24.126602,265.01867 24.249989,271.19906 26.910398,268.05837 C27.666694,267.16542 29.078298,269.3443 30.119728,269.9488 C33.617928,271.979 32.029648,275.29077 38.956378,280.0604 C40.807198,281.33492 43.356038,284.43621 43.440648,286.74284 C43.611732,291.40794 48.935458,282.19449 51.310108,284.28089 C51.583428,284.52103 51.756171,284.85885 52.013523,285.1162 C53.944593,287.04727 56.014193,286.71174 56.014193,289.90821 C56.014193,289.91754 60.121253,294.64838 61.843703,297.72209 C63.913923,301.41606 65.969833,298.27806 67.620543,304.59926 C69.504543,311.81403 71.110243,304.24693 75.621893,308.54871 C77.531193,310.36905 74.277693,313.59621 76.413235,314.26396 C78.728155,314.9877 80.592045,321.53949 84.370615,319.45165 C87.791675,317.56143 84.234992,323.54066 84.546469,324.06781 C85.407281,325.52482 86.371779,324.23827 89.514339,326.22202 C90.901049,327.09735 91.449349,323.37539 93.207269,331.23385 C94.1614,335.49872 96.502449,327.9565 96.856239,331.14592 C97.467372,336.65607 100.7694,331.23883 102.7913,332.94842 C113.4383,341.95097 107.8529,335.20549 112.59515,338.48781 C114.64256,339.90501 115.01729,336.70356 116.63979,338.04818 C119.39933,340.3349 125.74955,336.55944 126.97119,338.00421 C131.51477,343.3775 121.79263,345.37099 127.80649,350.18211 C129.58017,351.60097 131.20184,350.01704 129.87277,347.98394 C129.08226,346.77474 138.58189,337.57704 142.57817,339.80674 C144.53869,340.90064 146.83785,340.67295 148.38134,342.57644 C149.57416,344.04776 150.22926,342.46239 153.34921,345.47803 C157.34739,349.34266 158.64805,342.21437 161.52641,348.55547 C162.60061,350.92203 158.98897,353.98806 164.16422,354.44657 C168.82186,354.85904 163.96577,358.9495 164.99953,360.95316 C167.29434,365.40114 163.20387,362.13146 177.70493,365.17365 C190.15553,367.78574 185.71706,360.01355 197.00483,358.40328 C212.84553,356.14331 206.76845,349.23607 216.43663,352.64407 C218.8148,353.48228 220.23179,352.20361 225.09743,357.83176 C226.0638,358.94972 227.87521,359.07663 228.70243,360.33768 C229.62587,361.74513 230.18578,360.4899 231.8678,359.85409 C236.61295,358.06009 229.8488,358.31724 234.37372,354.35866 C236.24963,352.7175 237.57517,347.5238 238.77006,353.74317 C238.94156,354.6355 240.00705,353.17662 241.23201,355.15 C242.67637,357.47695 242.88251,357.1014 242.8991,357.51324 C243.64378,356.08712 245.83013,352.46781 246.05866,355.92309 C246.25587,358.90514 246.12129,357.8805 249.23377,357.31623 C252.28487,356.76316 248.71699,353.7216 250.35816,350.77086 C250.35816,350.77086 250.80816,344.23524 252.45285,347.27701 C252.68615,347.70856 252.52087,350.70761 253.95196,349.37772 C255.29056,348.13389 253.50299,344.2537 256.35771,344.14939 C256.33987,339.34431 256.49209,335.08629 256.5317,335.02656 C258.54987,331.98769 255.58399,328.05939 256.48753,324.67776 C257.76641,319.89114 255.32644,320.39029 255.60577,319.19374 C255.90646,317.90532 252.23033,312.87358 255.67192,314.15205 C258.7448,315.29365 255.16779,310.7117 254.94424,310.21587 C254.49611,309.22171 252.63761,307.06481 252.65109,306.41262 C252.72388,302.869 251.43463,302.21992 251.32825,301.14966 C251.10346,298.88658 248.31779,296.46838 246.8867,296.07022 C246.79587,296.04513 246.71064,296.02771 246.63205,296.01941 C242.01299,295.52316 241.34441,295.57252 239.64249,299.55764 C238.36859,302.54073 232.94201,301.3421 232.9839,301.87941 C233.22466,304.9724 231.93769,307.29645 229.5224,304.13482 C225.97152,299.48693 226.02316,303.48408 226.58991,304.06867 C227.9731,305.4952 226.08495,307.23984 225.11257,305.46161 C223.83908,303.13238 223.59397,304.64331 221.34229,303.60415 C218.32229,302.21038 218.51992,303.26219 216.77839,300.64118 C216.23714,299.82661 219.55057,295.26769 215.49951,295.26769 C211.19794,295.26769 212.14294,286.50134 206.41546,289.58459 C201.4646,292.24977 199.08186,286.96794 197.30943,288.32417 C195.18716,289.94833 194.92234,285.52357 189.32799,284.16693 C182.2478,282.45007 184.13491,282.33581 180.50855,280.89435 C175.29432,278.82185 173.21539,272.50397 172.61006,272.32563 C170.61657,271.73834 170.88906,276.68755 162.65151,271.85033 C161.24883,271.02663 158.66784,262.98402 156.78447,260.70543 C154.55996,258.01391 158.84889,257.89136 159.14356,255.0665 C159.38639,252.73893 159.31215,252.15413 158.3939,251.1747 C157.5167,250.23923 162.2463,248.00601 159.18773,247.54813 L159.188,247.548 Z" id="_40437568"></path>
            </g>
        </g>
    </g>
</svg>