<?xml version="1.0" encoding="UTF-8"?>
<svg width="248px" height="189px" viewBox="0 0 248 189" version="1.1" xmlns="http://www.w3.org/2000/svg" xmlns:xlink="http://www.w3.org/1999/xlink">
    <!-- Generator: Sketch 42 (36781) - http://www.bohemiancoding.com/sketch -->
    <title>_40446064</title>
    <desc>Created with Sketch.</desc>
    <defs></defs>
    <g id="Page-1" stroke="none" stroke-width="1" fill="none" fill-rule="evenodd">
        <g id="A4-Copy" transform="translate(-20.000000, -108.000000)" stroke="#FFFFFF" stroke-width="0.731572" fill="#808080" fill-rule="nonzero">
            <g id="svg2" transform="translate(18.000000, 62.000000)">
                <path d="M201.571,198.07 C201.59132,198.00488 201.21369,197.41304 203.46765,195.73807 C207.12864,193.01752 204.93939,189.85858 206.32527,186.11008 C208.71837,179.6375 206.31967,176.80186 212.656,179.51556 C214.89295,180.47363 220.56071,174.39963 221.97625,172.70123 C224.66984,169.4693 232.50675,162.66323 236.87985,165.57915 C238.80595,166.86342 238.45818,164.33822 242.68302,164.26025 C247.56027,164.17004 246.63185,162.15436 246.28802,160.74318 C245.1937,156.25207 245.35048,156.599 248.90488,153.6014 C248.27488,153.05414 248.74188,151.33189 245.32082,145.39994 C244.06454,143.22168 244.1759,135.09594 242.37527,134.10134 C240.67044,133.15965 239.75281,133.40269 242.19942,131.33164 C243.63445,130.11684 238.57907,130.95691 236.74795,128.78176 C221.92545,111.17526 218.43385,118.62906 211.20515,113.87816 C209.56274,112.79877 207.58999,113.525 206.19332,112.25151 C204.49471,110.70263 195.86482,110.50355 200.0824,101.83221 C201.77416,98.35412 203.20774,101.67709 203.77533,95.14977 C204.22885,89.93388 207.93112,92.46136 203.2627,84.00087 C201.81564,81.37862 202.61465,71.24817 198.05925,71.17557 C195.66386,71.137413 196.51452,68.12218 192.08416,67.81444 C188.53805,67.568079 187.46924,61.28131 184.83019,59.25671 C180.24265,55.73715 185.86022,56.50236 182.1843,54.45827 C179.94984,53.21568 188.07436,47.73269 178.85511,48.79736 C177.24505,48.983375 173.9818,44.0829 172.88002,49.615453 C171.35602,57.268823 162.76782,53.208423 159.93752,56.757853 C156.05526,61.626593 159.27723,75.170053 151.9424,72.200853 C149.55655,71.235109 148.51553,75.025293 146.97453,72.112926 C145.12019,68.608296 143.29446,73.843676 134.66473,65.694266 C132.20029,63.367106 130.91913,65.915535 126.17979,71.937076 C124.94467,73.506276 118.73359,81.488336 118.70601,82.796076 C118.59962,87.842336 121.96656,89.059626 119.8051,89.698336 C116.0707,90.801986 113.35284,85.351766 112.81491,85.389916 C110.55307,85.550424 107.94057,86.911216 101.03271,85.609733 C100.27931,85.467889 93.059356,84.686086 92.899466,85.56577 C92.278586,88.98123 98.059566,87.39316 95.405386,93.91882 C94.232686,96.80237 96.250438,100.77483 94.701971,103.45889 C93.85526,104.92669 97.875841,112.84965 92.459831,111.76798 C90.176431,111.31196 89.704231,113.37907 90.833181,114.44975 C92.092771,115.64423 86.375871,113.89025 86.173061,119.32969 C85.978958,124.53438 83.974471,123.23331 79.666471,124.91305 C78.612801,125.32386 69.336071,126.86673 66.389471,127.68275 C61.805241,128.9523 61.895251,125.42485 61.069891,127.68275 C59.977851,130.6704 58.093031,128.19579 56.673551,129.57318 C52.750851,133.37934 48.623681,123.47989 43.836251,129.57318 C37.040171,138.22278 38.433101,131.68363 33.680651,133.44196 C31.403471,134.28452 31.747921,130.6592 32.273821,129.70507 C34.439641,125.77677 27.596281,131.16271 25.151741,127.90257 C23.374541,125.53228 24.230375,128.84965 18.117591,130.49641 C16.902581,130.82365 13.158851,126.22885 9.544721,134.49708 C8.021551,137.9816 4.334641,133.70408 4.664781,138.8055 C4.813676,141.10653 6.476611,141.73612 4.225147,143.64148 C2.150367,145.39711 4.364503,149.76339 6.818987,148.82917 C8.837577,148.06085 14.619597,151.2285 13.545397,153.75307 C10.699387,160.44194 13.08544,160.98029 10.995517,163.55692 C8.936907,166.09498 15.119167,170.31215 8.401677,169.62387 C7.227517,169.50359 1.914997,165.57737 3.213987,170.19539 C3.573989,171.47551 5.698127,170.37436 6.423317,171.69015 C7.708837,174.02249 10.155437,172.94726 12.622157,177.62521 C13.558454,179.40075 16.184027,178.33734 16.315087,183.1646 C16.391608,185.98303 12.789717,187.57152 14.776367,190.33064 C17.017047,193.4425 11.783537,192.54416 19.172707,193.40808 C21.544447,193.68534 16.416487,194.06546 21.458807,197.89235 C24.811437,200.43684 27.480347,203.07423 31.922107,203.87138 C35.955547,204.59512 30.244857,206.24188 31.5704,207.91602 C34.59185,211.73213 29.05183,215.30789 33.62154,217.23088 C34.81332,217.73232 37.63611,220.67413 37.08573,222.86857 C55.11883,223.57033 45.82284,224.12236 51.50283,218.09335 C53.04321,216.45841 55.07776,216.28484 56.54162,214.33468 C58.42686,211.82296 61.39564,216.08492 64.63089,216.66474 C72.43461,218.06307 68.94408,222.46895 78.91899,217.76383 C81.47177,216.55961 86.19701,216.89203 86.61259,220.35767 C87.131441,224.6833 98.82549,226.74834 101.34039,225.76517 C106.20001,223.865 111.08783,223.76981 113.96559,224.7872 C118.07119,226.23903 121.75189,226.28424 123.30782,223.15412 C124.77396,220.20463 132.76597,221.99137 140.07222,222.11621 C153.86262,222.35178 149.63178,224.88922 153.83282,225.89707 C157.10893,226.68302 159.50742,229.21009 161.90654,231.48105 L162.29661,231.4937 C167.70287,231.70688 165.7185,228.65785 167.36775,230.23328 C169.19182,231.97585 171.52333,231.6484 173.45316,233.19646 C179.35421,237.93041 179.03693,228.58901 177.15729,227.9335 C170.42819,225.58685 177.27591,222.436 179.71484,222.56021 C185.28845,222.8441 181.2378,220.19054 181.10404,218.07117 C180.80231,213.29118 172.89553,210.83587 175.3272,205.44477 C177.02581,201.67905 173.44673,203.52863 173.62963,201.13283 C173.75966,199.42987 194.46233,196.92354 197.28753,197.24103 C201.13226,197.67299 201.55074,198.13481 201.57085,198.07011 L201.571,198.07 Z" id="_40446064"></path>
            </g>
        </g>
    </g>
</svg>